<svg width="190" height="39" viewBox="0 0 190 39" fill="none" id="logo" xmlns="http://www.w3.org/2000/svg">
<path d="M13.824 11.992C15.648 11.992 17.304 12.288 18.792 12.88C20.296 13.472 21.576 14.312 22.632 15.4C23.704 16.488 24.528 17.816 25.104 19.384C25.68 20.952 25.968 22.704 25.968 24.64C25.968 26.592 25.68 28.352 25.104 29.92C24.528 31.488 23.704 32.824 22.632 33.928C21.576 35.032 20.296 35.88 18.792 36.472C17.304 37.064 15.648 37.36 13.824 37.36C11.984 37.36 10.312 37.064 8.808 36.472C7.304 35.88 6.016 35.032 4.944 33.928C3.888 32.824 3.064 31.488 2.472 29.92C1.896 28.352 1.608 26.592 1.608 24.64C1.608 22.704 1.896 20.952 2.472 19.384C3.064 17.816 3.888 16.488 4.944 15.4C6.016 14.312 7.304 13.472 8.808 12.88C10.312 12.288 11.984 11.992 13.824 11.992ZM13.824 32.8C15.872 32.8 17.384 32.112 18.36 30.736C19.352 29.36 19.848 27.344 19.848 24.688C19.848 22.032 19.352 20.008 18.36 18.616C17.384 17.224 15.872 16.528 13.824 16.528C11.744 16.528 10.2 17.232 9.192 18.64C8.2 20.032 7.704 22.048 7.704 24.688C7.704 27.328 8.2 29.344 9.192 30.736C10.2 32.112 11.744 32.8 13.824 32.8Z" fill="black"/>
<path d="M18.792 12.88L18.4223 13.8092L18.4257 13.8105L18.792 12.88ZM22.632 15.4L21.9144 16.0965L21.9197 16.1018L22.632 15.4ZM25.104 29.92L24.1653 29.5752L24.1653 29.5752L25.104 29.92ZM22.632 33.928L21.9146 33.2313L21.9094 33.2368L22.632 33.928ZM18.792 36.472L18.4257 35.5415L18.4223 35.5428L18.792 36.472ZM4.944 33.928L4.22134 34.6192L4.22657 34.6246L4.944 33.928ZM2.472 29.92L1.53329 30.2648L1.53646 30.2732L2.472 29.92ZM2.472 19.384L1.53642 19.0308L1.53333 19.0392L2.472 19.384ZM4.944 15.4L4.23166 14.6981L4.22642 14.7035L4.944 15.4ZM8.808 12.88L9.17426 13.8105L9.17427 13.8105L8.808 12.88ZM18.36 30.736L17.5488 30.1512L17.5443 30.1575L18.36 30.736ZM18.36 18.616L17.5412 19.1901L17.5456 19.1964L18.36 18.616ZM9.192 18.64L8.37889 18.0579L8.37763 18.0596L9.192 18.64ZM9.192 30.736L8.37757 31.3164L8.3853 31.327L9.192 30.736ZM13.824 12.992C15.5389 12.992 17.0672 13.27 18.4223 13.8092L19.1617 11.9508C17.5408 11.306 15.7571 10.992 13.824 10.992V12.992ZM18.4257 13.8105C19.8062 14.3539 20.964 15.1172 21.9144 16.0965L23.3496 14.7035C22.188 13.5068 20.7858 12.5901 19.1583 11.9495L18.4257 13.8105ZM21.9197 16.1018C22.8826 17.0791 23.6338 18.2819 24.1653 19.7288L26.0427 19.0392C25.4222 17.3501 24.5254 15.8969 23.3443 14.6981L21.9197 16.1018ZM24.1653 19.7288C24.6949 21.1703 24.968 22.8033 24.968 24.64H26.968C26.968 22.6047 26.6651 20.7337 26.0427 19.0392L24.1653 19.7288ZM24.968 24.64C24.968 26.4938 24.6946 28.1345 24.1653 29.5752L26.0427 30.2648C26.6654 28.5695 26.968 26.6902 26.968 24.64H24.968ZM24.1653 29.5752C23.6334 31.0231 22.8809 32.2362 21.9146 33.2314L23.3494 34.6246C24.5271 33.4118 25.4226 31.9529 26.0427 30.2648L24.1653 29.5752ZM21.9094 33.2368C20.9592 34.2301 19.803 34.9994 18.4257 35.5415L19.1583 37.4025C20.789 36.7606 22.1928 35.8339 23.3546 34.6192L21.9094 33.2368ZM18.4223 35.5428C17.0672 36.082 15.5389 36.36 13.824 36.36V38.36C15.7571 38.36 17.5408 38.046 19.1617 37.4012L18.4223 35.5428ZM13.824 36.36C12.0922 36.36 10.5466 36.0817 9.17427 35.5415L8.44174 37.4025C10.0774 38.0463 11.8758 38.36 13.824 38.36V36.36ZM9.17427 35.5415C7.79581 34.9989 6.62936 34.2282 5.66143 33.2314L4.22657 34.6246C5.40264 35.8358 6.81219 36.7611 8.44174 37.4025L9.17427 35.5415ZM5.66664 33.2368C4.71229 32.239 3.95667 31.0212 3.40754 29.5668L1.53646 30.2732C2.17133 31.9548 3.06371 33.409 4.22136 34.6192L5.66664 33.2368ZM3.41067 29.5752C2.88144 28.1345 2.608 26.4938 2.608 24.64H0.608C0.608 26.6902 0.910558 28.5695 1.53333 30.2648L3.41067 29.5752ZM2.608 24.64C2.608 22.8033 2.88113 21.1703 3.41067 19.7288L1.53333 19.0392C0.910872 20.7337 0.608 22.6047 0.608 24.64H2.608ZM3.40754 19.7372C3.95629 18.2838 4.71059 17.0763 5.66158 16.0965L4.22642 14.7035C3.06541 15.8997 2.17171 17.3482 1.53646 19.0308L3.40754 19.7372ZM5.65633 16.1018C6.62457 15.1192 7.79262 14.3543 9.17426 13.8105L8.44174 11.9495C6.81538 12.5896 5.40743 13.5048 4.23168 14.6981L5.65633 16.1018ZM9.17427 13.8105C10.5466 13.2703 12.0922 12.992 13.824 12.992V10.992C11.8758 10.992 10.0774 11.3057 8.44174 11.9495L9.17427 13.8105ZM13.824 33.8C16.1176 33.8 17.9709 33.013 19.1757 31.3145L17.5443 30.1575C16.7971 31.211 15.6264 31.8 13.824 31.8V33.8ZM19.1712 31.3208C20.3377 29.7027 20.848 27.4435 20.848 24.688H18.848C18.848 27.2445 18.3663 29.0173 17.5488 30.1512L19.1712 31.3208ZM20.848 24.688C20.848 21.9313 20.3372 19.6674 19.1744 18.0356L17.5456 19.1964C18.3668 20.3486 18.848 22.1327 18.848 24.688H20.848ZM19.1788 18.0419C17.9759 16.3263 16.1222 15.528 13.824 15.528V17.528C15.6218 17.528 16.7921 18.1217 17.5412 19.1901L19.1788 18.0419ZM13.824 15.528C11.495 15.528 9.61374 16.333 8.37889 18.0579L10.0051 19.2221C10.7863 18.131 11.993 17.528 13.824 17.528V15.528ZM8.37763 18.0596C7.21534 19.6906 6.704 21.9458 6.704 24.688H8.704C8.704 22.1502 9.18466 20.3734 10.0064 19.2204L8.37763 18.0596ZM6.704 24.688C6.704 27.4302 7.21534 29.6854 8.37763 31.3164L10.0064 30.1556C9.18466 29.0026 8.704 27.2258 8.704 24.688H6.704ZM8.3853 31.327C9.6237 33.0175 11.5038 33.8 13.824 33.8V31.8C11.9842 31.8 10.7763 31.2065 9.9987 30.145L8.3853 31.327Z" fill="black"/>
<path d="M37.928 1.336V37H32V1.336H37.928Z" fill="black"/>
<path d="M37.928 1.336H38.928V0.335999H37.928V1.336ZM37.928 37V38H38.928V37H37.928ZM32 37H31V38H32V37ZM32 1.336V0.335999H31V1.336H32ZM36.928 1.336V37H38.928V1.336H36.928ZM37.928 36H32V38H37.928V36ZM33 37V1.336H31V37H33ZM32 2.336H37.928V0.335999H32V2.336Z" fill="black"/>
<path d="M56.936 26.488C55.224 26.568 53.784 26.72 52.616 26.944C51.448 27.152 50.512 27.424 49.808 27.76C49.104 28.096 48.6 28.488 48.296 28.936C47.992 29.384 47.84 29.872 47.84 30.4C47.84 31.44 48.144 32.184 48.752 32.632C49.376 33.08 50.184 33.304 51.176 33.304C52.392 33.304 53.44 33.088 54.32 32.656C55.216 32.208 56.088 31.536 56.936 30.64V26.488ZM43.352 15.808C46.184 13.216 49.592 11.92 53.576 11.92C55.016 11.92 56.304 12.16 57.44 12.64C58.576 13.104 59.536 13.76 60.32 14.608C61.104 15.44 61.696 16.44 62.096 17.608C62.512 18.776 62.72 20.056 62.72 21.448V37H60.032C59.472 37 59.04 36.92 58.736 36.76C58.432 36.584 58.192 36.24 58.016 35.728L57.488 33.952C56.864 34.512 56.256 35.008 55.664 35.44C55.072 35.856 54.456 36.208 53.816 36.496C53.176 36.784 52.488 37 51.752 37.144C51.032 37.304 50.232 37.384 49.352 37.384C48.312 37.384 47.352 37.248 46.472 36.976C45.592 36.688 44.832 36.264 44.192 35.704C43.552 35.144 43.056 34.448 42.704 33.616C42.352 32.784 42.176 31.816 42.176 30.712C42.176 30.088 42.28 29.472 42.488 28.864C42.696 28.24 43.032 27.648 43.496 27.088C43.976 26.528 44.592 26 45.344 25.504C46.096 25.008 47.016 24.576 48.104 24.208C49.208 23.84 50.488 23.544 51.944 23.32C53.4 23.08 55.064 22.936 56.936 22.888V21.448C56.936 19.8 56.584 18.584 55.88 17.8C55.176 17 54.16 16.6 52.832 16.6C51.872 16.6 51.072 16.712 50.432 16.936C49.808 17.16 49.256 17.416 48.776 17.704C48.296 17.976 47.856 18.224 47.456 18.448C47.072 18.672 46.64 18.784 46.16 18.784C45.744 18.784 45.392 18.68 45.104 18.472C44.816 18.248 44.584 17.992 44.408 17.704L43.352 15.808Z" fill="black"/>
<path d="M56.936 26.488H57.936V25.4402L56.8893 25.4891L56.936 26.488ZM52.616 26.944L52.7913 27.9286L52.8043 27.9261L52.616 26.944ZM48.752 32.632L48.1588 33.4371L48.1688 33.4443L48.752 32.632ZM54.32 32.656L54.7607 33.5537L54.7672 33.5504L54.32 32.656ZM56.936 30.64L57.6623 31.3274L57.936 31.0382V30.64H56.936ZM43.352 15.808L42.6768 15.0703L42.0937 15.604L42.4784 16.2946L43.352 15.808ZM57.44 12.64L57.0508 13.5612L57.0619 13.5658L57.44 12.64ZM60.32 14.608L59.5857 15.2869L59.5922 15.2938L60.32 14.608ZM62.096 17.608L61.1499 17.932L61.154 17.9435L62.096 17.608ZM62.72 37V38H63.72V37H62.72ZM58.736 36.76L58.235 37.6254L58.2524 37.6355L58.2703 37.6449L58.736 36.76ZM58.016 35.728L57.0575 36.013L57.0635 36.0332L57.0703 36.0531L58.016 35.728ZM57.488 33.952L58.4465 33.667L57.9962 32.1523L56.8201 33.2078L57.488 33.952ZM55.664 35.44L56.2389 36.2582L56.2463 36.2531L56.2535 36.2478L55.664 35.44ZM53.816 36.496L54.2264 37.4079L54.2264 37.4079L53.816 36.496ZM51.752 37.144L51.56 36.1626L51.5475 36.1651L51.5351 36.1678L51.752 37.144ZM46.472 36.976L46.161 37.9264L46.1688 37.929L46.1767 37.9314L46.472 36.976ZM44.192 35.704L43.5335 36.4566L43.5335 36.4566L44.192 35.704ZM42.488 28.864L43.4342 29.1877L43.4367 29.1802L42.488 28.864ZM43.496 27.088L42.7367 26.4372L42.7313 26.4435L42.726 26.45L43.496 27.088ZM48.104 24.208L47.7878 23.2593L47.7836 23.2607L48.104 24.208ZM51.944 23.32L52.0961 24.3084L52.1066 24.3067L51.944 23.32ZM56.936 22.888L56.9616 23.8877L57.936 23.8627V22.888H56.936ZM55.88 17.8L55.1292 18.4607L55.136 18.4681L55.88 17.8ZM50.432 16.936L50.1016 15.9921L50.0941 15.9948L50.432 16.936ZM48.776 17.704L49.269 18.574L49.2798 18.5679L49.2905 18.5615L48.776 17.704ZM47.456 18.448L46.9674 17.5755L46.9597 17.5798L46.9521 17.5842L47.456 18.448ZM45.104 18.472L44.4901 19.2614L44.5041 19.2723L44.5185 19.2827L45.104 18.472ZM44.408 17.704L43.5344 18.1906L43.5442 18.2082L43.5547 18.2254L44.408 17.704ZM56.8893 25.4891C55.1486 25.5704 53.6578 25.726 52.4277 25.9619L52.8043 27.9261C53.9102 27.714 55.2994 27.5656 56.9827 27.4869L56.8893 25.4891ZM52.4407 25.9595C51.2251 26.176 50.1928 26.4683 49.3773 26.8575L50.2387 28.6625C50.8312 28.3797 51.6709 28.128 52.7913 27.9285L52.4407 25.9595ZM49.3773 26.8575C48.5796 27.2382 47.9067 27.7288 47.4685 28.3745L49.1235 29.4975C49.2933 29.2472 49.6284 28.9538 50.2387 28.6625L49.3773 26.8575ZM47.4685 28.3745C47.0551 28.9837 46.84 29.6664 46.84 30.4H48.84C48.84 30.0776 48.9289 29.7843 49.1235 29.4975L47.4685 28.3745ZM46.84 30.4C46.84 31.6289 47.2065 32.7354 48.1588 33.4371L49.3452 31.8269C49.0815 31.6326 48.84 31.2511 48.84 30.4H46.84ZM48.1688 33.4443C49.0063 34.0456 50.0357 34.304 51.176 34.304V32.304C50.3323 32.304 49.7457 32.1144 49.3352 31.8197L48.1688 33.4443ZM51.176 34.304C52.5089 34.304 53.7146 34.0672 54.7607 33.5537L53.8793 31.7583C53.1654 32.1088 52.2751 32.304 51.176 32.304V34.304ZM54.7672 33.5504C55.7886 33.0397 56.752 32.2892 57.6623 31.3274L56.2097 29.9526C55.424 30.7828 54.6434 31.3763 53.8728 31.7616L54.7672 33.5504ZM57.936 30.64V26.488H55.936V30.64H57.936ZM44.0272 16.5457C46.6673 14.1293 49.8315 12.92 53.576 12.92V10.92C49.3525 10.92 45.7007 12.3027 42.6768 15.0703L44.0272 16.5457ZM53.576 12.92C54.9044 12.92 56.0568 13.1412 57.0508 13.5611L57.8292 11.7189C56.5512 11.1788 55.1276 10.92 53.576 10.92V12.92ZM57.0619 13.5658C58.0712 13.978 58.9071 14.5528 59.5857 15.2869L61.0543 13.9291C60.1649 12.9672 59.0808 12.23 57.8181 11.7142L57.0619 13.5658ZM59.5922 15.2938C60.2709 16.014 60.7924 16.8878 61.1499 17.932L63.0421 17.284C62.5996 15.9922 61.9371 14.866 61.0478 13.9222L59.5922 15.2938ZM61.154 17.9435C61.5272 18.9915 61.72 20.1564 61.72 21.448H63.72C63.72 19.9556 63.4968 18.5605 63.038 17.2725L61.154 17.9435ZM61.72 21.448V37H63.72V21.448H61.72ZM62.72 36H60.032V38H62.72V36ZM60.032 36C59.5434 36 59.2989 35.9262 59.2017 35.8751L58.2703 37.6449C58.7811 37.9138 59.4006 38 60.032 38V36ZM59.237 35.8946C59.2288 35.8898 59.1 35.8052 58.9617 35.4029L57.0703 36.0531C57.284 36.6748 57.6352 37.2782 58.235 37.6254L59.237 35.8946ZM58.9745 35.443L58.4465 33.667L56.5295 34.237L57.0575 36.013L58.9745 35.443ZM56.8201 33.2078C56.2177 33.7484 55.6358 34.2226 55.0745 34.6322L56.2535 36.2478C56.8762 35.7934 57.5103 35.2756 58.1559 34.6962L56.8201 33.2078ZM55.0891 34.6218C54.5472 35.0026 53.9862 35.3228 53.4056 35.5841L54.2264 37.4079C54.9258 37.0932 55.5968 36.7094 56.2389 36.2582L55.0891 34.6218ZM53.4056 35.5841C52.8401 35.8386 52.2259 36.0323 51.56 36.1626L51.944 38.1254C52.7501 37.9677 53.5119 37.7294 54.2264 37.4079L53.4056 35.5841ZM51.5351 36.1678C50.8984 36.3093 50.1726 36.384 49.352 36.384V38.384C50.2914 38.384 51.1656 38.2987 51.9689 38.1202L51.5351 36.1678ZM49.352 36.384C48.3994 36.384 47.5402 36.2595 46.7673 36.0206L46.1767 37.9314C47.1638 38.2365 48.2246 38.384 49.352 38.384V36.384ZM46.783 36.0256C46.0195 35.7757 45.3805 35.4152 44.8505 34.9514L43.5335 36.4566C44.2835 37.1128 45.1645 37.6003 46.161 37.9264L46.783 36.0256ZM44.8505 34.9514C44.3313 34.4972 43.9218 33.928 43.625 33.2264L41.783 34.0056C42.1902 34.968 42.7727 35.7908 43.5335 36.4566L44.8505 34.9514ZM43.625 33.2264C43.3353 32.5418 43.176 31.7111 43.176 30.712H41.176C41.176 31.9209 41.3687 33.0262 41.783 34.0056L43.625 33.2264ZM43.176 30.712C43.176 30.2014 43.2607 29.6946 43.4342 29.1877L41.5418 28.5403C41.2993 29.2494 41.176 29.9746 41.176 30.712H43.176ZM43.4367 29.1802C43.6016 28.6854 43.8726 28.2008 44.266 27.726L42.726 26.45C42.1914 27.0952 41.7904 27.7946 41.5393 28.5478L43.4367 29.1802ZM44.2553 27.7388C44.663 27.2631 45.2039 26.7944 45.8946 26.3388L44.7934 24.6692C43.9801 25.2056 43.289 25.7929 42.7367 26.4372L44.2553 27.7388ZM45.8946 26.3388C46.5585 25.9008 47.3966 25.5029 48.4244 25.1553L47.7836 23.2607C46.6354 23.6491 45.6335 24.1152 44.7934 24.6692L45.8946 26.3388ZM48.4202 25.1567C49.4588 24.8105 50.6819 24.5259 52.0961 24.3084L51.7919 22.3316C50.2941 22.5621 48.9572 22.8695 47.7878 23.2593L48.4202 25.1567ZM52.1066 24.3067C53.5072 24.0758 55.124 23.9348 56.9616 23.8877L56.9104 21.8883C55.004 21.9372 53.2928 22.0842 51.7814 22.3333L52.1066 24.3067ZM57.936 22.888V21.448H55.936V22.888H57.936ZM57.936 21.448C57.936 19.6864 57.5642 18.1788 56.624 17.1319L55.136 18.4681C55.6038 18.9892 55.936 19.9136 55.936 21.448H57.936ZM56.6307 17.1394C55.6916 16.0723 54.371 15.6 52.832 15.6V17.6C53.949 17.6 54.6604 17.9277 55.1293 18.4606L56.6307 17.1394ZM52.832 15.6C51.8025 15.6 50.8819 15.719 50.1016 15.9921L50.7624 17.8799C51.2621 17.705 51.9415 17.6 52.832 17.6V15.6ZM50.0941 15.9948C49.4196 16.237 48.8066 16.5194 48.2615 16.8465L49.2905 18.5615C49.7054 18.3126 50.1964 18.083 50.7699 17.8772L50.0941 15.9948ZM48.283 16.834C47.8042 17.1053 47.3657 17.3525 46.9674 17.5755L47.9446 19.3205C48.3463 19.0955 48.7878 18.8467 49.269 18.574L48.283 16.834ZM46.9521 17.5842C46.7332 17.7119 46.4775 17.784 46.16 17.784V19.784C46.8025 19.784 47.4108 19.6321 47.9599 19.3118L46.9521 17.5842ZM46.16 17.784C45.9171 17.784 45.7793 17.7262 45.6895 17.6613L44.5185 19.2827C45.0047 19.6338 45.5709 19.784 46.16 19.784V17.784ZM45.7179 17.6826C45.5175 17.5267 45.3694 17.3595 45.2613 17.1825L43.5547 18.2254C43.7986 18.6245 44.1145 18.9693 44.4901 19.2614L45.7179 17.6826ZM45.2816 17.2174L44.2256 15.3214L42.4784 16.2946L43.5344 18.1906L45.2816 17.2174Z" fill="black"/>
<path d="M75.856 1.336V21.76H76.96C77.36 21.76 77.672 21.712 77.896 21.616C78.136 21.504 78.376 21.288 78.616 20.968L84.736 13.408C84.992 13.072 85.272 12.816 85.576 12.64C85.896 12.464 86.304 12.376 86.8 12.376H92.224L84.568 21.52C84.024 22.24 83.432 22.792 82.792 23.176C83.128 23.416 83.424 23.696 83.68 24.016C83.952 24.336 84.208 24.68 84.448 25.048L92.656 37H87.304C86.84 37 86.44 36.928 86.104 36.784C85.768 36.624 85.488 36.344 85.264 35.944L78.976 26.608C78.752 26.24 78.52 26 78.28 25.888C78.04 25.776 77.68 25.72 77.2 25.72H75.856V37H69.928V1.336H75.856Z" fill="black"/>
<path d="M75.856 1.336H76.856V0.335999H75.856V1.336ZM75.856 21.76H74.856V22.76H75.856V21.76ZM77.896 21.616L78.2899 22.5351L78.3045 22.5289L78.3189 22.5222L77.896 21.616ZM78.616 20.968L77.8388 20.3388L77.8271 20.3532L77.816 20.368L78.616 20.968ZM84.736 13.408L85.5132 14.0372L85.5225 14.0258L85.5314 14.014L84.736 13.408ZM85.576 12.64L85.0941 11.7638L85.0845 11.7691L85.075 11.7746L85.576 12.64ZM92.224 12.376L92.9907 13.018L94.3655 11.376H92.224V12.376ZM84.568 21.52L83.8013 20.878L83.7852 20.8972L83.7701 20.9172L84.568 21.52ZM82.792 23.176L82.2775 22.3185L80.9696 23.1032L82.2108 23.9897L82.792 23.176ZM83.68 24.016L82.8991 24.6407L82.9084 24.6523L82.9181 24.6636L83.68 24.016ZM84.448 25.048L83.6104 25.5943L83.6169 25.6043L83.6237 25.6141L84.448 25.048ZM92.656 37V38H94.5559L93.4803 36.4339L92.656 37ZM86.104 36.784L85.6741 37.6869L85.6919 37.6954L85.7101 37.7031L86.104 36.784ZM85.264 35.944L86.1365 35.4554L86.1164 35.4195L86.0934 35.3854L85.264 35.944ZM78.976 26.608L78.1218 27.1279L78.1337 27.1476L78.1466 27.1666L78.976 26.608ZM78.28 25.888L78.7029 24.9818L78.7029 24.9818L78.28 25.888ZM75.856 25.72V24.72H74.856V25.72H75.856ZM75.856 37V38H76.856V37H75.856ZM69.928 37H68.928V38H69.928V37ZM69.928 1.336V0.335999H68.928V1.336H69.928ZM74.856 1.336V21.76H76.856V1.336H74.856ZM75.856 22.76H76.96V20.76H75.856V22.76ZM76.96 22.76C77.4195 22.76 77.8867 22.7079 78.2899 22.5351L77.5021 20.6969C77.4573 20.7161 77.3005 20.76 76.96 20.76V22.76ZM78.3189 22.5222C78.7647 22.3141 79.1236 21.9579 79.416 21.568L77.816 20.368C77.6284 20.6181 77.5073 20.6939 77.4731 20.7098L78.3189 22.5222ZM79.3932 21.5972L85.5132 14.0372L83.9588 12.7788L77.8388 20.3388L79.3932 21.5972ZM85.5314 14.014C85.7232 13.7623 85.908 13.6033 86.077 13.5054L85.075 11.7746C84.636 12.0287 84.2608 12.3817 83.9406 12.802L85.5314 14.014ZM86.0579 13.5162C86.1868 13.4453 86.4148 13.376 86.8 13.376V11.376C86.1932 11.376 85.6052 11.4827 85.0941 11.7638L86.0579 13.5162ZM86.8 13.376H92.224V11.376H86.8V13.376ZM91.4573 11.734L83.8013 20.878L85.3347 22.162L92.9907 13.018L91.4573 11.734ZM83.7701 20.9172C83.2877 21.5557 82.7872 22.0127 82.2775 22.3185L83.3065 24.0335C84.0768 23.5713 84.7603 22.9243 85.3659 22.1228L83.7701 20.9172ZM82.2108 23.9897C82.4724 24.1766 82.7011 24.3931 82.8991 24.6407L84.4609 23.3913C84.1469 22.9989 83.7836 22.6554 83.3732 22.3623L82.2108 23.9897ZM82.9181 24.6636C83.1615 24.95 83.3924 25.26 83.6104 25.5943L85.2856 24.5017C85.0236 24.1 84.7425 23.722 84.4419 23.3684L82.9181 24.6636ZM83.6237 25.6141L91.8317 37.5661L93.4803 36.4339L85.2723 24.4819L83.6237 25.6141ZM92.656 36H87.304V38H92.656V36ZM87.304 36C86.9403 36 86.6808 35.9432 86.4979 35.8649L85.7101 37.7031C86.1992 37.9128 86.7397 38 87.304 38V36ZM86.5339 35.8811C86.4243 35.8289 86.2832 35.7173 86.1365 35.4554L84.3915 36.4326C84.6929 36.9707 85.1117 37.4191 85.6741 37.6869L86.5339 35.8811ZM86.0934 35.3854L79.8054 26.0494L78.1466 27.1666L84.4346 36.5026L86.0934 35.3854ZM79.8302 26.0881C79.562 25.6474 79.2016 25.2146 78.7029 24.9818L77.8571 26.7942C77.8417 26.787 77.8628 26.793 77.915 26.847C77.9673 26.9011 78.0378 26.9899 78.1218 27.1279L79.8302 26.0881ZM78.7029 24.9818C78.2627 24.7764 77.7262 24.72 77.2 24.72V26.72C77.6338 26.72 77.8173 26.7756 77.8571 26.7942L78.7029 24.9818ZM77.2 24.72H75.856V26.72H77.2V24.72ZM74.856 25.72V37H76.856V25.72H74.856ZM75.856 36H69.928V38H75.856V36ZM70.928 37V1.336H68.928V37H70.928ZM69.928 2.336H75.856V0.335999H69.928V2.336Z" fill="black"/>
<path d="M118.144 12.376V37H114.52C113.736 37 113.24 36.64 113.032 35.92L112.624 33.952C111.616 34.976 110.504 35.808 109.288 36.448C108.072 37.072 106.64 37.384 104.992 37.384C103.648 37.384 102.456 37.16 101.416 36.712C100.392 36.248 99.528 35.6 98.824 34.768C98.12 33.936 97.584 32.952 97.216 31.816C96.864 30.664 96.688 29.4 96.688 28.024V12.376H102.616V28.024C102.616 29.528 102.96 30.696 103.648 31.528C104.352 32.344 105.4 32.752 106.792 32.752C107.816 32.752 108.776 32.528 109.672 32.08C110.568 31.616 111.416 30.984 112.216 30.184V12.376H118.144Z" fill="black"/>
<path d="M118.144 12.376H119.144V11.376H118.144V12.376ZM118.144 37V38H119.144V37H118.144ZM113.032 35.92L112.053 36.123L112.061 36.1606L112.071 36.1975L113.032 35.92ZM112.624 33.952L113.603 33.749L113.223 31.9175L111.911 33.2505L112.624 33.952ZM109.288 36.448L109.745 37.3377L109.754 37.3329L109.288 36.448ZM101.416 36.712L101.003 37.6229L101.012 37.6267L101.02 37.6304L101.416 36.712ZM98.824 34.768L98.0606 35.4139L98.0606 35.4139L98.824 34.768ZM97.216 31.816L96.2596 32.1082L96.2621 32.1162L96.2647 32.1242L97.216 31.816ZM96.688 12.376V11.376H95.688V12.376H96.688ZM102.616 12.376H103.616V11.376H102.616V12.376ZM103.648 31.528L102.877 32.1653L102.884 32.1733L102.891 32.1812L103.648 31.528ZM109.672 32.08L110.119 32.9744L110.126 32.9713L110.132 32.968L109.672 32.08ZM112.216 30.184L112.923 30.8911L113.216 30.5982V30.184H112.216ZM112.216 12.376V11.376H111.216V12.376H112.216ZM117.144 12.376V37H119.144V12.376H117.144ZM118.144 36H114.52V38H118.144V36ZM114.52 36C114.28 36 114.182 35.946 114.147 35.9207C114.117 35.8985 114.049 35.8375 113.993 35.6425L112.071 36.1975C112.223 36.7225 112.507 37.2015 112.973 37.5393C113.434 37.874 113.976 38 114.52 38V36ZM114.011 35.717L113.603 33.749L111.645 34.155L112.053 36.123L114.011 35.717ZM111.911 33.2505C110.972 34.2044 109.943 34.9733 108.822 35.5631L109.754 37.3329C111.065 36.6427 112.26 35.7476 113.337 34.6535L111.911 33.2505ZM108.831 35.5583C107.783 36.0964 106.514 36.384 104.992 36.384V38.384C106.766 38.384 108.361 38.0476 109.745 37.3377L108.831 35.5583ZM104.992 36.384C103.759 36.384 102.706 36.1787 101.812 35.7936L101.02 37.6304C102.206 38.1413 103.537 38.384 104.992 38.384V36.384ZM101.829 35.8011C100.935 35.3964 100.193 34.8372 99.5874 34.1221L98.0606 35.4139C98.8635 36.3628 99.8486 37.0996 101.003 37.6229L101.829 35.8011ZM99.5874 34.1221C98.9751 33.3985 98.4991 32.532 98.1673 31.5078L96.2647 32.1242C96.6689 33.372 97.2649 34.4735 98.0606 35.4139L99.5874 34.1221ZM98.1724 31.5238C97.8531 30.4789 97.688 29.3148 97.688 28.024H95.688C95.688 29.4852 95.8749 30.8491 96.2596 32.1082L98.1724 31.5238ZM97.688 28.024V12.376H95.688V28.024H97.688ZM96.688 13.376H102.616V11.376H96.688V13.376ZM101.616 12.376V28.024H103.616V12.376H101.616ZM101.616 28.024C101.616 29.6701 101.992 31.0948 102.877 32.1653L104.419 30.8907C103.928 30.2972 103.616 29.3859 103.616 28.024H101.616ZM102.891 32.1812C103.837 33.2779 105.2 33.752 106.792 33.752V31.752C105.6 31.752 104.867 31.4101 104.405 30.8748L102.891 32.1812ZM106.792 33.752C107.968 33.752 109.081 33.4934 110.119 32.9744L109.225 31.1856C108.471 31.5626 107.664 31.752 106.792 31.752V33.752ZM110.132 32.968C111.129 32.4514 112.059 31.755 112.923 30.8911L111.509 29.4769C110.773 30.213 110.007 30.7806 109.212 31.192L110.132 32.968ZM113.216 30.184V12.376H111.216V30.184H113.216ZM112.216 13.376H118.144V11.376H112.216V13.376Z" fill="black"/>
<path d="M131.472 15.4C131.968 14.904 132.488 14.448 133.032 14.032C133.592 13.6 134.176 13.24 134.784 12.952C135.408 12.648 136.072 12.416 136.776 12.256C137.48 12.08 138.248 11.992 139.08 11.992C140.424 11.992 141.616 12.224 142.656 12.688C143.696 13.136 144.56 13.776 145.248 14.608C145.952 15.424 146.48 16.408 146.832 17.56C147.2 18.696 147.384 19.952 147.384 21.328V37H141.456V21.328C141.456 19.824 141.112 18.664 140.424 17.848C139.736 17.016 138.688 16.6 137.28 16.6C136.256 16.6 135.296 16.832 134.4 17.296C133.504 17.76 132.656 18.392 131.856 19.192V37H125.928V12.376H129.552C130.32 12.376 130.824 12.736 131.064 13.456L131.472 15.4Z" fill="black"/>
<path d="M131.472 15.4L130.493 15.6054L130.873 17.4134L132.179 16.1071L131.472 15.4ZM133.032 14.032L133.639 14.8264L133.643 14.8238L133.032 14.032ZM134.784 12.952L135.212 13.8558L135.222 13.851L134.784 12.952ZM136.776 12.256L136.998 13.2311L137.008 13.2287L137.019 13.2261L136.776 12.256ZM142.656 12.688L142.249 13.6013L142.26 13.6064L142.656 12.688ZM145.248 14.608L144.477 15.2453L144.484 15.2533L144.491 15.2612L145.248 14.608ZM146.832 17.56L145.876 17.8522L145.878 17.8602L145.881 17.8682L146.832 17.56ZM147.384 37V38H148.384V37H147.384ZM141.456 37H140.456V38H141.456V37ZM140.424 17.848L139.653 18.4853L139.659 18.4926L140.424 17.848ZM131.856 19.192L131.149 18.4849L130.856 18.7778V19.192H131.856ZM131.856 37V38H132.856V37H131.856ZM125.928 37H124.928V38H125.928V37ZM125.928 12.376V11.376H124.928V12.376H125.928ZM131.064 13.456L132.043 13.2506L132.031 13.1943L132.013 13.1398L131.064 13.456ZM132.179 16.1071C132.645 15.6416 133.131 15.2149 133.639 14.8264L132.425 13.2376C131.845 13.6811 131.291 14.1664 130.765 14.6929L132.179 16.1071ZM133.643 14.8238C134.149 14.4333 134.672 14.1115 135.212 13.8557L134.356 12.0483C133.68 12.3685 133.035 12.7667 132.421 13.2402L133.643 14.8238ZM135.222 13.851C135.774 13.5819 136.365 13.3748 136.998 13.2311L136.554 11.2809C135.779 11.4572 135.042 11.7141 134.346 12.053L135.222 13.851ZM137.019 13.2261C137.633 13.0726 138.318 12.992 139.08 12.992V10.992C138.178 10.992 137.327 11.0874 136.533 11.2859L137.019 13.2261ZM139.08 12.992C140.309 12.992 141.358 13.2038 142.249 13.6012L143.063 11.7748C141.874 11.2442 140.539 10.992 139.08 10.992V12.992ZM142.26 13.6064C143.162 13.9949 143.895 14.5414 144.477 15.2453L146.019 13.9707C145.225 13.0106 144.23 12.2771 143.052 11.7696L142.26 13.6064ZM144.491 15.2612C145.094 15.9603 145.559 16.8174 145.876 17.8522L147.788 17.2678C147.401 15.9986 146.81 14.8877 146.005 13.9548L144.491 15.2612ZM145.881 17.8682C146.212 18.8908 146.384 20.041 146.384 21.328H148.384C148.384 19.863 148.188 18.5012 147.783 17.2518L145.881 17.8682ZM146.384 21.328V37H148.384V21.328H146.384ZM147.384 36H141.456V38H147.384V36ZM142.456 37V21.328H140.456V37H142.456ZM142.456 21.328C142.456 19.6834 142.08 18.2613 141.189 17.2034L139.659 18.4926C140.144 19.0667 140.456 19.9646 140.456 21.328H142.456ZM141.195 17.2107C140.262 16.0832 138.889 15.6 137.28 15.6V17.6C138.487 17.6 139.21 17.9488 139.653 18.4853L141.195 17.2107ZM137.28 15.6C136.098 15.6 134.98 15.8693 133.94 16.408L134.86 18.184C135.612 17.7947 136.414 17.6 137.28 17.6V15.6ZM133.94 16.408C132.943 16.9246 132.013 17.6209 131.149 18.4849L132.563 19.8991C133.299 19.163 134.065 18.5954 134.86 18.184L133.94 16.408ZM130.856 19.192V37H132.856V19.192H130.856ZM131.856 36H125.928V38H131.856V36ZM126.928 37V12.376H124.928V37H126.928ZM125.928 13.376H129.552V11.376H125.928V13.376ZM129.552 13.376C129.778 13.376 129.879 13.4273 129.925 13.4597C129.969 13.4914 130.047 13.5667 130.115 13.7722L132.013 13.1398C131.841 12.6253 131.547 12.1606 131.087 11.8323C130.629 11.5047 130.094 11.376 129.552 11.376V13.376ZM130.085 13.6614L130.493 15.6054L132.451 15.1946L132.043 13.2506L130.085 13.6614Z" fill="black"/>
<path d="M160.928 1.336V37H155V1.336H160.928Z" fill="black"/>
<path d="M160.928 1.336H161.928V0.335999H160.928V1.336ZM160.928 37V38H161.928V37H160.928ZM155 37H154V38H155V37ZM155 1.336V0.335999H154V1.336H155ZM159.928 1.336V37H161.928V1.336H159.928ZM160.928 36H155V38H160.928V36ZM156 37V1.336H154V37H156ZM155 2.336H160.928V0.335999H155V2.336Z" fill="black"/>
<path d="M182.792 21.856C182.792 21.088 182.68 20.368 182.456 19.696C182.248 19.008 181.928 18.408 181.496 17.896C181.064 17.384 180.512 16.984 179.84 16.696C179.184 16.392 178.416 16.24 177.536 16.24C175.824 16.24 174.472 16.728 173.48 17.704C172.504 18.68 171.88 20.064 171.608 21.856H182.792ZM171.488 25.432C171.584 26.696 171.808 27.792 172.16 28.72C172.512 29.632 172.976 30.392 173.552 31C174.128 31.592 174.808 32.04 175.592 32.344C176.392 32.632 177.272 32.776 178.232 32.776C179.192 32.776 180.016 32.664 180.704 32.44C181.408 32.216 182.016 31.968 182.528 31.696C183.056 31.424 183.512 31.176 183.896 30.952C184.296 30.728 184.68 30.616 185.048 30.616C185.544 30.616 185.912 30.8 186.152 31.168L187.856 33.328C187.2 34.096 186.464 34.744 185.648 35.272C184.832 35.784 183.976 36.2 183.08 36.52C182.2 36.824 181.296 37.04 180.368 37.168C179.456 37.296 178.568 37.36 177.704 37.36C175.992 37.36 174.4 37.08 172.928 36.52C171.456 35.944 170.176 35.104 169.088 34C168 32.88 167.144 31.504 166.52 29.872C165.896 28.224 165.584 26.32 165.584 24.16C165.584 22.48 165.856 20.904 166.4 19.432C166.944 17.944 167.72 16.656 168.728 15.568C169.752 14.464 170.992 13.592 172.448 12.952C173.92 12.312 175.576 11.992 177.416 11.992C178.968 11.992 180.4 12.24 181.712 12.736C183.024 13.232 184.152 13.96 185.096 14.92C186.04 15.864 186.776 17.032 187.304 18.424C187.848 19.8 188.12 21.376 188.12 23.152C188.12 24.048 188.024 24.656 187.832 24.976C187.64 25.28 187.272 25.432 186.728 25.432H171.488Z" fill="black"/>
<path d="M182.792 21.856V22.856H183.792V21.856H182.792ZM182.456 19.696L181.499 19.9854L181.503 19.9989L181.507 20.0122L182.456 19.696ZM179.84 16.696L179.42 17.6033L179.433 17.6094L179.446 17.6151L179.84 16.696ZM173.48 17.704L172.779 16.9911L172.773 16.9969L173.48 17.704ZM171.608 21.856L170.619 21.7059L170.445 22.856H171.608V21.856ZM171.488 25.432V24.432H170.409L170.491 25.5077L171.488 25.432ZM172.16 28.72L171.225 29.0747L171.227 29.0801L172.16 28.72ZM173.552 31L172.826 31.6878L172.835 31.6974L173.552 31ZM175.592 32.344L175.23 33.2764L175.242 33.2808L175.253 33.2849L175.592 32.344ZM180.704 32.44L180.401 31.4871L180.394 31.4891L180.704 32.44ZM182.528 31.696L182.07 30.807L182.059 30.8129L182.528 31.696ZM183.896 30.952L183.407 30.0795L183.4 30.0838L183.392 30.0882L183.896 30.952ZM186.152 31.168L185.314 31.7143L185.339 31.752L185.367 31.7874L186.152 31.168ZM187.856 33.328L188.616 33.9775L189.15 33.3532L188.641 32.7086L187.856 33.328ZM185.648 35.272L186.18 36.1191L186.191 36.1116L185.648 35.272ZM183.08 36.52L183.407 37.4652L183.416 37.4617L183.08 36.52ZM180.368 37.168L180.231 36.1774L180.229 36.1777L180.368 37.168ZM172.928 36.52L172.564 37.4513L172.572 37.4546L172.928 36.52ZM169.088 34L168.371 34.6968L168.376 34.7019L169.088 34ZM166.52 29.872L165.585 30.2261L165.586 30.2291L166.52 29.872ZM166.4 19.432L167.338 19.7787L167.339 19.7754L166.4 19.432ZM168.728 15.568L167.995 14.888L167.994 14.8884L168.728 15.568ZM172.448 12.952L172.049 12.0349L172.046 12.0365L172.448 12.952ZM185.096 14.92L184.383 15.6212L184.389 15.6271L185.096 14.92ZM187.304 18.424L186.369 18.7787L186.374 18.7917L187.304 18.424ZM187.832 24.976L188.677 25.51L188.684 25.5003L188.689 25.4905L187.832 24.976ZM183.792 21.856C183.792 20.9896 183.665 20.162 183.405 19.3798L181.507 20.0122C181.695 20.574 181.792 21.1864 181.792 21.856H183.792ZM183.413 19.4066C183.169 18.5978 182.786 17.8747 182.26 17.2511L180.732 18.5409C181.07 18.9413 181.327 19.4182 181.499 19.9854L183.413 19.4066ZM182.26 17.2511C181.719 16.6095 181.036 16.1205 180.234 15.7769L179.446 17.6151C179.988 17.8475 180.409 18.1585 180.732 18.5409L182.26 17.2511ZM180.26 15.7887C179.447 15.4118 178.53 15.24 177.536 15.24V17.24C178.302 17.24 178.921 17.3722 179.42 17.6033L180.26 15.7887ZM177.536 15.24C175.626 15.24 173.999 15.7907 172.779 16.9912L174.181 18.4168C174.945 17.6653 176.022 17.24 177.536 17.24V15.24ZM172.773 16.9969C171.605 18.1649 170.913 19.7688 170.619 21.7059L172.597 22.0061C172.847 20.3592 173.403 19.1951 174.187 18.4111L172.773 16.9969ZM171.608 22.856H182.792V20.856H171.608V22.856ZM170.491 25.5077C170.592 26.8422 170.831 28.0363 171.225 29.0747L173.095 28.3653C172.785 27.5476 172.576 26.5498 172.485 25.3563L170.491 25.5077ZM171.227 29.0801C171.618 30.0937 172.147 30.9706 172.826 31.6877L174.278 30.3123C173.805 29.8134 173.406 29.1703 173.093 28.3599L171.227 29.0801ZM172.835 31.6974C173.513 32.3942 174.315 32.9214 175.23 33.2764L175.954 31.4116C175.301 31.1586 174.743 30.7898 174.269 30.3026L172.835 31.6974ZM175.253 33.2849C176.175 33.6167 177.171 33.776 178.232 33.776V31.776C177.373 31.776 176.609 31.6473 175.931 31.4031L175.253 33.2849ZM178.232 33.776C179.265 33.776 180.199 33.6561 181.014 33.3909L180.394 31.4891C179.833 31.6719 179.119 31.776 178.232 31.776V33.776ZM181.007 33.3929C181.754 33.1554 182.42 32.8858 182.997 32.5791L182.059 30.8129C181.612 31.0502 181.062 31.2766 180.401 31.4871L181.007 33.3929ZM182.986 32.585C183.525 32.3074 183.997 32.0509 184.4 31.8158L183.392 30.0882C183.027 30.3011 182.587 30.5406 182.07 30.807L182.986 32.585ZM184.385 31.8245C184.672 31.6638 184.888 31.616 185.048 31.616V29.616C184.472 29.616 183.92 29.7922 183.407 30.0795L184.385 31.8245ZM185.048 31.616C185.172 31.616 185.229 31.6387 185.249 31.6484C185.263 31.6557 185.285 31.6684 185.314 31.7143L186.99 30.6217C186.539 29.9303 185.831 29.616 185.048 29.616V31.616ZM185.367 31.7874L187.071 33.9474L188.641 32.7086L186.937 30.5486L185.367 31.7874ZM187.096 32.6785C186.5 33.3759 185.836 33.959 185.105 34.4324L186.191 36.1116C187.092 35.529 187.9 34.8161 188.616 33.9775L187.096 32.6785ZM185.117 34.4249C184.361 34.8989 183.571 35.283 182.744 35.5783L183.416 37.4617C184.381 37.117 185.303 36.6691 186.179 36.1191L185.117 34.4249ZM182.753 35.5748C181.936 35.8574 181.095 36.0582 180.231 36.1774L180.505 38.1586C181.497 38.0218 182.464 37.7906 183.407 37.4652L182.753 35.5748ZM180.229 36.1777C179.36 36.2997 178.519 36.36 177.704 36.36V38.36C178.617 38.36 179.552 38.2923 180.507 38.1583L180.229 36.1777ZM177.704 36.36C176.103 36.36 174.632 36.0985 173.284 35.5854L172.572 37.4546C174.168 38.0615 175.881 38.36 177.704 38.36V36.36ZM173.292 35.5888C171.949 35.0629 170.788 34.3 169.8 33.2981L168.376 34.7019C169.564 35.908 170.963 36.8251 172.564 37.4512L173.292 35.5888ZM169.805 33.3032C168.822 32.2915 168.035 31.0352 167.454 29.5149L165.586 30.2291C166.253 31.9728 167.178 33.4685 168.371 34.6968L169.805 33.3032ZM167.455 29.5179C166.883 28.0054 166.584 26.2254 166.584 24.16H164.584C164.584 26.4146 164.909 28.4426 165.585 30.2261L167.455 29.5179ZM166.584 24.16C166.584 22.5899 166.838 21.1321 167.338 19.7786L165.462 19.0853C164.874 20.6759 164.584 22.3701 164.584 24.16H166.584ZM167.339 19.7754C167.841 18.4034 168.55 17.2318 169.462 16.2476L167.994 14.8884C166.89 16.0802 166.047 17.4846 165.461 19.0886L167.339 19.7754ZM169.461 16.248C170.387 15.2499 171.512 14.4556 172.85 13.8675L172.046 12.0365C170.472 12.7284 169.117 13.6781 167.995 14.888L169.461 16.248ZM172.847 13.8691C174.176 13.2912 175.693 12.992 177.416 12.992V10.992C175.459 10.992 173.664 11.3328 172.049 12.0349L172.847 13.8691ZM177.416 12.992C178.86 12.992 180.171 13.2224 181.358 13.6714L182.066 11.8006C180.629 11.2576 179.076 10.992 177.416 10.992V12.992ZM181.358 13.6714C182.541 14.1184 183.545 14.7686 184.383 15.6211L185.809 14.2189C184.759 13.1514 183.507 12.3456 182.066 11.8006L181.358 13.6714ZM184.389 15.6271C185.222 16.4601 185.885 17.5036 186.369 18.7787L188.239 18.0693C187.667 16.5604 186.858 15.2679 185.803 14.2129L184.389 15.6271ZM186.374 18.7917C186.864 20.0297 187.12 21.4773 187.12 23.152H189.12C189.12 21.2747 188.832 19.5703 188.234 18.0563L186.374 18.7917ZM187.12 23.152C187.12 23.569 187.097 23.8891 187.06 24.124C187.042 24.2404 187.021 24.3258 187.003 24.3856C186.984 24.4468 186.971 24.467 186.975 24.4615L188.689 25.4905C188.881 25.1718 188.979 24.7951 189.036 24.436C189.095 24.0629 189.12 23.631 189.12 23.152H187.12ZM186.987 24.442C186.997 24.4261 187.01 24.4111 187.024 24.4001C187.036 24.3896 187.041 24.3891 187.03 24.3937C187.003 24.405 186.914 24.432 186.728 24.432V26.432C187.428 26.432 188.221 26.2334 188.677 25.51L186.987 24.442ZM186.728 24.432H171.488V26.432H186.728V24.432Z" fill="black"/>
</svg>
